<?xml version="1.0" encoding="utf-8"?>
<!-- Generator: Adobe Illustrator 19.0.1, SVG Export Plug-In . SVG Version: 6.00 Build 0)  -->
<svg version="1.1" xmlns="http://www.w3.org/2000/svg" xmlns:xlink="http://www.w3.org/1999/xlink" x="0px" y="0px"
	 viewBox="0 0 612 528.1" style="enable-background:new 0 0 612 528.1;" xml:space="preserve">
<style type="text/css">
	.st0{fill:#79D8FB;}
	.st1{display:none;}
	.st2{display:inline;fill:#FBCD00;}
	.st3{fill:#FBCD00;}
	.st4{fill:none;}
	.st5{fill:#2B3990;stroke:#2B3990;stroke-width:2;stroke-miterlimit:10;}
	.st6{fill:#2B3990;stroke:#2B3990;stroke-miterlimit:10;}
</style>
<g id="Layer_2">
</g>
<g id="Layer_1">
</g>
<g id="Layer_4">
</g>
<g id="Layer_3">
	<g id="Layer_2_1_">
		<g>
			<path class="st0" d="M144.2,412.3c1.9-0.3,3.6,0.1,5.3,0.3c5.2,0.7,10.2,2,15.2,3.2c4.2,1,8.5,1.7,12.8,1.8
				c4.1,0.1,8.1-0.3,12.1-1c7.8-1.3,15.3-3.7,22.6-6.6c8.3-3.2,16.5-7,24.7-10.3c6.4-2.6,12.8-5,19.5-6.7c5.3-1.4,10.7-2.4,16.2-2.8
				c4.3-0.3,8.5-0.3,12.8,0.1c2.5,0.2,4.8,0.9,7.2,1.8c2.6,0.9,5.2,2,7.8,2.8c3.8,1.2,7.6,1.2,11.3-0.3c1.9-0.7,3.8-1.4,5.6-2.2
				c4.1-1.9,8.4-2.5,12.9-2.7c11.2-0.5,22.1,1.4,32.8,4.7c9.4,2.9,18.4,6.7,27.5,10.4c7.5,3,15,5.9,22.8,8.1
				c7.6,2.1,15.2,3.4,23.1,3.3c8.6-0.1,16.8-1.9,24.7-5.4c1.5-0.6,2.9-1.4,4.3-2c0.4-0.2,0.8-0.6,1.3-0.3c0.2,0.6-0.2,1-0.5,1.4
				c-2.8,5-6.9,8.8-11.7,11.8c-7.8,5-16.4,7.7-25.4,9.4c-7.5,1.4-15.1,1.6-22.7,1.2c-10.2-0.6-20-2.8-29.3-7.3
				c-4.2-2-8-4.8-11.7-7.7c-4.1-3.3-8.1-6.8-12.4-9.9c-2.7-2-5.5-3.8-8.4-5.4c-2-1.1-4.2-1.7-6.4-2.1c-5.1-0.9-10.2-1.2-15.3-1
				c-0.3,0-0.5,0-0.8,0.3c0.3,0.7,1,1.1,1.6,1.5c4.5,3.5,9.2,6.6,13.9,9.7c8,5.2,16.2,10.1,23.8,16c5.5,4.2,10.5,8.9,14.6,14.5
				c0.1,0.1,0.2,0.2,0.3,0.4c0.9,1.2,0.9,1.3-0.4,2.1c-1.7,1.2-3.2,2.5-4.6,4.1c-0.9,1-1.9,1.8-2.8,2.6s-1.2,0.8-2.1,0
				c-1.9-1.7-3.8-3.3-5.6-5c-5-4.7-10-9.4-15.1-14.1c-7.5-6.9-15.2-13.5-23.6-19.3c-4.3-2.9-8.8-5.5-13.4-8
				c-0.8-0.4-1.5-0.5-2.3-0.1c-5.4,2.3-10.6,5-15.6,8.1c-7,4.3-13.4,9.4-19.5,14.8c-7.6,6.7-14.7,14.1-21.9,21.3
				c-1.3,1.3-2.5,2.6-3.8,3.8c-0.7,0.7-0.9,0.6-1.4-0.2c-0.7-1-1.3-2.1-2-3.1c-1.1-1.8-2.6-3.1-4.6-3.9c-1-0.4-1-0.5-0.5-1.5
				c1.8-2.9,3.9-5.6,6.1-8.1c4.7-5.2,9.9-9.7,15.5-13.8c7.9-5.7,16.4-10.6,24.8-15.6c2.2-1.3,4.3-2.6,6.5-3.9
				c0.4-0.3,0.9-0.4,1.2-0.9c-0.2-0.4-0.6-0.3-0.8-0.3c-5.4-0.2-10.7,0.4-15.8,1.9c-6.4,1.9-12.3,5-17.9,8.5
				c-6.1,3.8-12,8.1-18.1,12.1c-6.9,4.4-14,8.2-21.9,10.5c-7.2,2.1-14.6,3-22.1,2.5c-7.7-0.5-15.1-2.5-22.1-5.6
				c-8.3-3.6-15.8-8.3-23.1-13.5c-1.4-1-2.7-2-4.1-3C144.8,413.2,144.4,413,144.2,412.3z"/>
			<path class="st0" d="M469,355.3c1.5-0.9,2.9-1.8,4.3-2.7c7.7-4.6,15.6-8.9,23.5-13.2c11.7-6.3,23.3-12.6,34.3-20.1
				c6.6-4.4,12.8-9.3,18.3-15c1.2-1.3,2.4-2.7,3.6-4c0.2-0.2,0.3-0.6,0.8-0.5c0.2,0.6-0.1,1.1-0.3,1.6c-2.4,7-5.3,13.8-9.1,20.2
				c-4.4,7.4-9.7,14.1-16,20.1c-6.4,6.1-13.6,11.3-21.3,15.6c-13.8,7.7-28.7,12.6-44,15.9c-6.9,1.5-13.9,2.6-20.9,3.6
				c-0.7,0.1-1.4,0.3-2.1,0c-0.2-0.5,0.2-0.7,0.4-1c6.2-7.3,10.8-15.6,14.8-24.3c4.6-10,8.2-20.3,12-30.6c3.4-9.2,7-18.5,11.5-27.3
				c3.2-6.2,6.8-12.1,11.2-17.5c0.4-0.4,0.7-0.9,1.1-1.3c1.1-1,2.4-0.6,3,0.7c0.4,0.9,0.3,1.9,0,2.9c-1.3,5.4-2.4,10.9-3.4,16.4
				c-1.3,7.2-2.6,14.5-4.1,21.6c-1.6,7.3-3.4,14.6-6.4,21.5c-2.6,6.1-5.9,11.9-10.8,16.5C469.2,354.8,469,354.9,469,355.3z"/>
			<path class="st0" d="M172.2,379.4c-0.5,0.4-1,0.2-1.5,0.1c-12.3-2-24.6-4.4-36.6-7.9c-10.9-3.2-21.5-7.2-31.5-12.7
				c-9.4-5.1-17.8-11.4-25-19.3c-7.6-8.3-13.2-17.9-17-28.6c-0.8-2.3-1.6-4.6-2.2-6.9c-0.1-0.5-0.4-1-0.2-1.6
				c0.6,0.1,0.8,0.7,1.1,1.1c2,2.7,4.2,5.3,6.6,7.7c5.1,5.1,10.9,9.5,17,13.4c6.2,3.9,12.7,7.4,19.2,10.7c8.4,4.4,17,8.5,25.3,13.2
				c4.6,2.7,9.2,5.5,13.5,8.6c0.4,0.3,0.7,0.6,1.2,0.7c0.1-0.3-0.2-0.5-0.3-0.6c-5.1-6-8.7-12.9-11.4-20.3c-2.9-7.8-5-15.9-6.7-24
				c-2-9.8-3.9-19.5-5.9-29.3c-0.3-1.7-0.8-3.4-1.1-5.1c-0.1-0.3-0.2-0.6,0.2-0.8c0.3-0.1,0.5,0.1,0.7,0.2c0.4,0.3,0.7,0.6,1,0.9
				c6.3,5.8,11.1,12.6,15.1,20.1c4.5,8.3,8.1,17.1,11.4,25.9c3.4,8.8,6.6,17.7,10.3,26.4c3.7,8.6,8,16.9,13.8,24.3
				c0.7,0.9,1.5,1.8,2.2,2.7C171.9,378.7,172.2,379,172.2,379.4z"/>
			<path class="st0" d="M195.8,386.9c-1.7-0.8-3.4-1.6-5-2.6c-5.8-3.5-10.6-8-14.8-13.3c-3.8-4.8-6.9-10.1-9.9-15.4
				c-2.8-5.2-5.4-10.5-8.1-15.8c-0.9-1.7-1.8-3.4-2.6-5.1c-0.2-0.4-0.5-0.8-0.5-1.4c0.6-0.2,1.1,0.3,1.5,0.5
				c5.3,2.6,10.1,5.9,14.7,9.6c6.8,5.4,13,11.5,19.2,17.6c4.9,4.9,9.8,9.6,14.9,14.3c2.2,2,4.6,3.8,6.8,5.8c1.5,1.3,3.4,2,5.2,2.6
				c3.1,1,6.3,1.8,9.5,2.6c3.8,1,7.6,2,11.2,3.9c1.1,0.6,2.1,1.2,3.1,2c0.4,0.3,0.9,0.5,0.7,1.1c-0.1,0.4-0.6,0.5-1,0.6
				c-3.7,1-7.3,2-11,3c-10.5,2.6-21.1,4.8-31.9,6.1c-5.1,0.7-10.3,1.1-15.5,1.4c-4.4,0.2-8.7,0.3-13.1,0.2
				c-11.2-0.3-22.2-1.8-32.8-5.5c-9.8-3.4-18.4-8.5-25.6-16.1c-4-4.1-7.3-8.8-9.8-13.9c-0.2-0.4-0.4-0.7-0.4-1.2
				c0.3-0.3,0.6,0,0.8,0.1c6.4,5.3,13.9,8.5,21.8,10.8c7.5,2.2,15.2,3.4,23,4.4c6,0.8,12,1.3,18.1,1.8c5,0.4,10,0.7,15.1,1
				c4.7,0.3,9.3,0.8,14,1.1c0.8,0.1,1.6,0.1,2.4,0.1C195.8,387.1,195.8,387,195.8,386.9z"/>
			<path class="st0" d="M413.4,386c2-0.1,3.9-0.2,5.8-0.4c2.1-0.1,4.2-0.4,6.3-0.5c7.5-0.4,15.1-0.9,22.6-1.6
				c12.2-1.1,24.3-2.6,36.2-5.8c7.3-2,14.4-4.5,20.9-8.4c2.4-1.4,4.6-3.1,6.7-4.9c0.3-0.2,0.5-0.7,1-0.6c0.2,0.4,0,0.7-0.1,1
				c-2.3,5.1-5.2,9.7-8.9,13.8c-7.3,8.2-16.4,13.6-26.5,17.4c-8.1,3-16.6,4.8-25.2,5.8c-8.6,1.1-17.2,1.2-25.8,0.8
				c-17.7-0.9-35-4.2-51.7-10c-0.6-0.2-1.4-0.2-1.5-0.9s0.6-1,1.1-1.4c2-1.7,4.3-2.8,6.7-3.6c3.3-1.2,6.7-1.9,10.1-2.9
				c1.8-0.5,3.5-1.1,5.2-1.9c2.9-1.3,5.1-3.5,7.4-5.5c6.4-5.6,12.5-11.6,18.6-17.6c4.8-4.7,9.6-9.4,14.6-14
				c5.5-5.1,11.3-10.1,17.3-14.6c0.4-0.3,0.9-0.7,1.4-0.9c0.4,0.4,0.2,0.7,0.1,1c-3.6,8.7-6.8,17.5-11.2,25.9
				c-3,5.9-6.5,11.4-10.9,16.4c-5.4,6-11.7,10.4-19.5,12.8c-0.2,0.1-0.4,0.1-0.6,0.2C413.4,385.8,413.4,385.8,413.4,386z"/>
			<path class="st0" d="M38.9,230.1c0.6,0.1,0.6,0.5,0.7,0.9c3.7,9.7,9.4,18.2,16,26.2c3.3,4,6.8,7.7,10.3,11.5
				c4,4.2,8.2,8.4,12.2,12.6c5.5,5.9,10.8,12,15.3,18.7c0.1,0.2,0.2,0.5,0.5,0.5c0.3-0.4,0-0.7-0.1-1c-1.7-5.1-2.4-10.3-2.8-15.6
				c-0.3-4.4-0.1-8.7,0.1-13.1c0.3-5.2,0.9-10.3,1.6-15.5c1.4-9.1,2.7-18.2,4.1-27.3c0.2-1.2,0.3-2.4,0.6-3.7
				c0.7,0.3,0.8,0.9,1.1,1.4c2,4.1,3.5,8.3,4.7,12.7c2.1,7.9,3.5,15.9,4.4,23.9c0.7,6.4,1.4,12.8,2.1,19.1c0.7,6.7,1.3,13.4,2.3,20
				c1.2,8.7,2.8,17.3,5.8,25.6c0.7,2,1.6,4,2.5,6c0.1,0.3,0.3,0.5,0.3,1c-0.5,0.3-0.8-0.1-1.2-0.3c-5.2-2.9-10.4-5.8-15.5-8.8
				c-9.1-5.3-17.9-10.8-26.3-17.2c-4.9-3.8-9.6-7.8-13.9-12.2c-6.2-6.5-11.6-13.6-15.7-21.6c-4.2-8.3-7-17.1-8.2-26.4
				c-0.7-5.3-1-10.6-0.9-16C38.8,231.2,38.7,230.7,38.9,230.1z"/>
			<path class="st0" d="M491.8,332.9c-0.2-0.4,0-0.6,0.1-0.8c2.8-5.9,4.4-12.3,5.6-18.7c1.3-6.9,2.2-13.9,2.9-20.9
				c0.8-8.2,1.6-16.3,2.4-24.5c0.9-9.4,1.9-18.8,3.7-28.1c1.1-5.7,2.5-11.2,4.6-16.6c0.2-0.5,0.3-1.1,0.8-1.4
				c0.5,0.1,0.5,0.5,0.5,0.9c2.6,10.3,4.9,20.7,6.3,31.3c0.6,5,1.1,10.1,1.3,15.2c0.2,7.4-0.2,14.8-1.9,22c-0.6,2.5-1.4,5-2.1,7.6
				c1-1.2,2.1-2.5,3.1-3.7c3.3-4,6.8-7.9,10.3-11.7c9-9.9,18.2-19.7,26.5-30.2c6-7.6,11.6-15.5,16.2-24c0.3-0.6,0.6-1.3,1.1-1.8
				c0.6,0.3,0.4,0.7,0.4,1.1c-0.4,15-3.2,29.4-10.2,42.8c-3.7,7-8.4,13.4-13.8,19.2c-6.9,7.3-14.7,13.6-22.8,19.5
				c-9,6.4-18.4,12.2-27.6,18.4c-2,1.3-4,2.7-6,4.1C492.6,332.6,492.3,332.9,491.8,332.9z"/>
			<path class="st0" d="M510.5,160.4c0.5,0.1,0.6,0.5,0.7,0.8c3.6,7.7,8.2,14.7,12.7,21.9c2.8,4.4,5.5,8.9,7.9,13.6
				c4.3,8.5,7.3,17.4,8.3,26.9c0.1,1.2,0.3,2.3,0.3,3.5c0,0.4,0,0.8,0.2,1.2c0.4-0.2,0.4-0.5,0.4-0.8c2.1-8.3,5.2-16.1,8.6-23.9
				c3.5-8,7.1-16,9.8-24.3c2.5-7.6,4.2-15.4,4.9-23.5c0.2-2.2,0.2-4.4,0.3-6.6c0-0.6-0.2-1.4,0.7-1.7c0.7-0.2,1.8,0.3,2.2,1
				c0.1,0.3,0.2,0.6,0.3,0.9c1.6,5.7,2.8,11.6,3.6,17.5c0.6,4.5,0.9,9.1,0.8,13.7c-0.2,11.9-2.2,23.5-6.3,34.7
				c-5.1,14.1-12.8,26.7-22.4,38.2c-3.5,4.1-7.1,8.1-11,11.8c-1.1,1.1-2.3,2.1-3.4,3.1c-0.3,0.2-0.5,0.6-0.9,0.4s-0.2-0.7-0.1-1
				c0.4-3.8,0.5-7.7,0.4-11.5c-0.2-7.7-1.4-15.3-3.3-22.8c-1.7-7-4-13.8-6.2-20.7c-2.5-7.5-4.8-15.1-6.5-22.8
				c-1.2-5.5-2-11-2.3-16.6c-0.2-3.7-0.2-7.4-0.2-11.1C510.2,161.7,510.1,161,510.5,160.4z"/>
			<path class="st0" d="M99.1,163.1c0.1,1.1,0.3,2,0.4,2.9c0.4,5.1,0.5,10.1,0.2,15.2c-0.7,10.4-3.2,20.5-6.1,30.4
				c-2.5,8.4-5.3,16.7-7.4,25.1c-1.7,6.9-3,14-3.5,21.1c-0.4,4.8-0.5,9.6-0.1,14.5c0.1,0.6,0.2,1.2-0.2,1.9
				c-1.1-0.5-1.7-1.4-2.4-2.2c-5.4-6-10.6-12.2-15.5-18.8c-5.5-7.5-10.4-15.3-14.5-23.6c-5-10.1-8.7-20.7-10.5-31.9
				c-1.2-7.5-1.4-15-0.9-22.6c0.5-6.6,1.8-13.1,3.5-19.5c0.1-0.5,0.3-1,0.5-1.5c0-0.1,0.2-0.3,0.2-0.4c0.6,0.1,0.5,0.6,0.5,1
				c1.4,8,3.5,15.7,6.2,23.4c2.6,7.3,5.5,14.4,8.5,21.5c4.6,11.1,9,22.2,11.7,33.9c0,0.2,0.1,0.4,0.4,0.6c0.1-0.7,0.2-1.3,0.3-2
				c0.6-8.9,2.7-17.4,6.1-25.7c2.3-5.7,5.2-11.2,8.2-16.6c3.6-6.4,7.3-12.6,10.5-19.2c1.1-2.2,2.1-4.5,3.1-6.7
				C98.5,163.6,98.5,163.3,99.1,163.1z"/>
			<path class="st0" d="M539,159.4c0.2-0.5,0.1-1,0.1-1.5c0-5.6,0.5-11.1,0.9-16.6c0.5-5.8,0.8-11.6,1.4-17.3
				c0.6-7.5,0.8-15,0.5-22.5c-0.2-6-1-12-3-17.7c-0.5-1.6-1.2-3.1-2-4.5c-0.4-0.7-0.7-1.3-0.1-2c0.6-0.6,1.3-0.3,2,0
				c1.4,0.5,2.3,1.4,3.1,2.6c5.6,8.5,10.4,17.5,13.6,27.2c2.3,7.2,3.6,14.5,4.1,22c0.7,10.3-1.3,20.2-4.3,30
				c-2.3,7.5-5.1,14.7-7.6,22.2c-2,6-3.6,12.1-4.3,18.4c0,0.2-0.1,0.4-0.3,0.6c-0.5,0-0.5-0.5-0.6-0.7
				c-4.1-11.4-10.3-21.7-17.2-31.6c-5.2-7.4-10.6-14.6-15.6-22.2c-5-7.6-9.5-15.5-12.8-24c-1.5-3.9-2.8-7.8-3.8-11.9
				c0-0.1-0.1-0.3-0.1-0.4c-0.3-1.4-0.1-1.6,1.4-1.3c1.9,0.5,3.5,1.5,4.7,3c1.1,1.4,2,2.9,2.8,4.4c1.5,2.9,3.8,5.2,6.2,7.4
				c4.6,4.1,9.5,7.8,14.1,11.9c5.6,5,10.5,10.4,13.8,17.2c1,2,1.8,4.1,2.5,6.3C538.6,158.8,538.5,159.2,539,159.4z"/>
			<path class="st0" d="M113.9,111.5c0.3,0.6,0.1,1.4,0.1,2.1c-0.5,6.1-1.8,12.1-4,17.8c-2.6,6.8-6.2,13.1-10.3,19.1
				c-4.6,6.7-9.6,13.1-14.2,19.8c-5.4,7.8-10.2,15.9-13.1,25c-0.5,1.7-1,3.4-1.4,5c-0.2,0.5-0.2,1.1-0.5,1.6c-0.7,0-0.8-0.6-1-1
				c-3.3-5.9-6.1-12-8.4-18.3c-3.8-10.1-6.5-20.5-8.2-31.2c-1.3-8.5-1.7-17-1.3-25.5c0.5-8.4,2-16.6,5.1-24.5
				c2.6-6.7,6.2-12.7,11.2-17.9c0.3-0.3,0.5-0.7,0.9-0.7c0.4,0.3,0.1,0.7,0.1,1c-1.5,6.2-2,12.6-1.8,19c0.2,5.4,0.7,10.9,1.3,16.3
				c0.8,7.1,1.7,14.2,2.4,21.3c0.6,6.4,0.6,12.8,0.5,19.2c0,1.4-0.2,2.9-0.3,4.5c0.5-0.3,0.5-0.6,0.6-0.9c2.6-7,6.4-13.3,11.1-19.1
				c5.7-7,12.4-13,18.8-19.3c3.9-3.8,7.6-7.7,11.1-12c0.3-0.4,0.6-0.7,0.9-1C113.5,111.4,113.6,111.4,113.9,111.5z"/>
			<path class="st0" d="M87.3,106.8c0.7-0.6,1.4-1.1,2-1.7c4.6-4.7,9.7-8.8,14.9-12.9c5.9-4.6,11.8-9.1,17.5-13.9
				c5.1-4.3,10-8.8,14.3-14c0.2-0.3,0.4-0.7,0.9-0.7c0.4,0.4,0.2,0.9,0.1,1.3c-1.3,10.4-5.4,19.5-11.9,27.7
				c-4.9,6.2-10.6,11.5-16.7,16.6c-6.3,5.2-12.6,10.2-18.8,15.4c-4.5,3.8-8.9,7.8-12.7,12.3c-0.2,0.2-0.4,0.5-0.6,0.7
				c-0.4,0.4-0.6,0.3-0.8-0.2c-0.1-0.2-0.1-0.5-0.1-0.8c-0.1-2.5-0.2-4.9-0.4-7.4c-0.3-5.9-0.4-11.8-0.3-17.7
				c0.5-11.3,1.4-22.5,4.4-33.5c2.1-7.8,5.2-15.3,10.2-21.8c4.6-6,10.5-10.4,17.5-13.1c0.3-0.1,0.6-0.2,0.9-0.3c0.1,0,0.3,0,0.4,0
				c0.3,0.3,0.1,0.6-0.1,0.9c-3.1,5.5-5.4,11.4-7.5,17.4c-3.6,10.2-6.5,20.6-9.3,31c-1.2,4.6-2.5,9.1-3.7,13.7
				C87.4,106.1,87.2,106.4,87.3,106.8z"/>
			<path class="st0" d="M471.1,60.9c0.5,0,0.6,0.3,0.8,0.6c5.1,6.2,11.2,11.2,17.7,15.9c5.6,4.1,11.4,8,16.9,12.4
				c4.6,3.7,8.8,7.7,12.4,12.4c0.2,0.2,0.3,0.6,0.8,0.6c0-1.5-0.4-2.9-0.6-4.4c-1.6-9.2-3.4-18.4-6.1-27.3
				c-2.5-8.5-5.7-16.7-10.2-24.4c-1.1-1.8-2.3-3.5-3.4-5.3c-0.2-0.4-0.7-0.7-0.6-1.2c0.5-0.3,0.9,0,1.3,0.1c9,3,16.3,8.3,21.8,16.1
				c4.9,7,7.7,14.8,9.5,23.1c1.2,5.3,1.8,10.7,2.2,16.2c0.4,5.4,0.7,10.8,0.5,16.2c-0.2,5.3-0.3,10.6-0.8,15.8
				c-0.2,1.8-0.3,3.6-0.4,5.4c0,0.7,0,1.3-0.4,1.9c-0.5,0.1-0.6-0.3-0.8-0.6c-3.8-6-8.7-11.1-14-15.7c-6.2-5.3-12.8-9.9-19.2-14.9
				c-4.2-3.3-8.4-6.8-12.1-10.7c-8.3-8.7-13.5-18.9-15.1-30.9c0-0.3-0.1-0.5-0.1-0.8C471,61.2,471.1,61.1,471.1,60.9z"/>
			<path class="st0" d="M160.2,17.1c-0.5,0.8-0.9,1.5-1.3,2.1c-6.2,9.8-12.5,19.4-19.6,28.6c-5.6,7.4-11.7,14.5-18.4,20.9
				c-5.4,5.2-11.1,9.9-17.5,13.9c-0.5,0.3-1,0.9-1.5,0.6c-0.6-0.4-0.3-1.1-0.2-1.7c0.8-6.9,2.4-13.5,5.1-19.9
				c2.7-6.5,6.5-12.4,11.1-17.7c6.4-7.2,14-12.8,22.3-17.6c6.1-3.5,12.4-6.5,18.8-9.2C159.3,17,159.6,16.8,160.2,17.1z"/>
			<path class="st0" d="M445.5,17c0.4-0.4,0.7-0.2,1-0.1c6.5,1,12.7,2.9,18.7,5.5c8.9,4,16.6,9.6,23.2,16.8c3.5,3.9,6.5,8.1,9,12.6
				c4.8,8.5,7.6,17.7,9,27.4c0.1,0.5,0.4,1.1-0.2,1.4c-0.5,0.3-0.9-0.2-1.2-0.4c-4.4-2.8-8.5-5.9-12.4-9.3c-8.2-7.2-15.2-15.5-22-24
				c-5.4-6.8-10.7-13.6-16.4-20.2c-2.5-2.8-5.1-5.5-7.6-8.3C446.1,17.8,445.6,17.6,445.5,17z"/>
		</g>
	</g>
	<g class="st1">
		<path class="st2" d="M293.8,46.2c0.3,0,0.5-0.1,0.8-0.1C294.3,46.1,294,46.2,293.8,46.2z"/>
		<path class="st2" d="M352.1,112.4c0-3.7,0-7.5,0-11.2c-0.8,0.1-1,0.6-1,1c0-0.5,0.1-1,1-1.1c0.1-0.6,0.3-1.2,0.3-1.8
			c-0.5-8.4-1.9-16.7-5.5-24.4c-0.3-0.6-0.4-2.1-1.4-1.6c-0.9,0.4-0.2,1.6,0.2,2.3c2.7,5.2,3.9,10.7,4.3,16.5
			c0.4,0.8,0.4,1.6,0.2,2.4c0-0.1,0-0.1,0-0.2c0,0,0,0-0.1,0c0.1-0.6,0.1-1.3-0.2-1.9c0,0,0-0.1,0-0.1c0,0,0,0-0.1,0
			c0,0,0-0.1,0-0.1c0,0,0,0.1,0,0.1c-0.1,0-0.3-0.1-0.4-0.1c0,0,0,0,0,0c-0.1-0.8,0-1.6-0.1-2.3c-2.4-12.5-7.9-23.1-17.6-31.4
			c1,0,1.6,0.9,2.3,1.5c1.5,1.3,3,2.7,4.5,4c0.2,0.2,0.6,0.1,0.9,0.2c-0.1-0.2,0-0.5-0.2-0.7c-4.8-5.5-10-10.5-17-13c0,0,0,0,0,0
			c-0.2,0-0.4-0.1-0.5,0c0,0.2,0.1,0.3,0.1,0.4c0,0-0.1,0.1-0.1,0.1c0-0.2-0.1-0.3-0.1-0.5l0.1-0.1c0.1,0,0.2-0.1,0.3-0.1
			c-0.7-0.4-1.4-0.9-2.1-1.3c-0.4-0.1-0.7-0.3-1.1-0.4c-1.8-0.6-3.7-1.2-5.6-1.8c-0.4-0.1-0.7-0.1-1-0.2c-0.4,0-0.8-0.1-1.2-0.2
			c-0.4-0.1-0.7-0.1-1-0.2c-0.7-0.1-1.4-0.2-2.1-0.3c-0.2,0-0.4,0-0.6,0c-0.2,0-0.4,0-0.6,0c0,0-0.1,0-0.1,0c-2.8,0-5.6,0-8.4,0
			c-0.5,0-0.9,0.1-1.4,0.1c-0.7,0.1-1.3,0.2-2,0.3c-0.2,0-0.5,0.1-0.8,0.1c-0.6,0.1-1.1,0.2-1.7,0.3c-0.2,0-0.3,0-0.5,0.1
			c0.1,0,0.1,0,0.2-0.1c-0.1,0-0.1,0-0.2,0.1c0,0-0.1,0-0.1,0c-0.1,0-0.2,0-0.3,0.1c0,0,0.1,0,0.1,0c-0.1,0-0.1,0-0.2,0.1
			c-0.2,0.1-0.5,0.1-0.7,0.2c-0.4,0.1-0.7,0.2-1,0.3c-18.8,5.7-30.7,18.3-36,36.9c-4.4,15.5-3.6,31.2-0.1,46.8
			c4.2,18.5,13.5,34.6,23.9,50.1c11,16.5,15,34.3,13.1,54.1c-3.5,37.2-6.1,74.4-8.9,111.6c-2.1,27.6-4.3,55.3-6.1,82.9
			c-1.2,18.2-3.5,36.3-3.4,54.5c0,3.1,0.6,6,2.6,8.5c7,8.8,16.3,11,27,9c0,0.1,0,0.1,0,0.2c0.8-0.2,1.6-0.3,2.4-0.6
			c4.4-1.6,7.9-4.4,10.9-8c2.7-3.2,0.8-6.8,0.8-10.1c0.1-10.5-0.9-20.9-1.6-31.4c-1.2-18.6-1.6-37.1-2.4-55.7
			c-0.6-14.9-1.2-29.9-1.8-44.9c-0.5-11.8-1-23.5-1.6-35.3c-0.4-8.8-0.8-17.5-1.3-26.2c-0.6-11.2-1.3-22.4-2-33.6
			c-0.4-7.1-0.9-14.1-1.4-21.2c-0.7-9.9-1.2-19.8,3-29.2c1.6-3.5,2.9-7.2,4.3-10.8c-2.2,1.1-1.7,4.2-4.2,5.5
			c-3.1,1.4-6.1,2.2-9.5,1.8c-0.5,0-0.9-0.1-1.4-0.1c0.2,0,0.4,0,0.7,0c0.2,0,0.4-0.1,0.6-0.1c0,0,0.1,0,0.1,0
			c3.4,0.4,6.4-0.5,9.5-1.8c2.5-1.1,2-4.2,4.2-5.3c3.2-4.6,6.3-9.3,9.8-13.9c0.7,0.9-0.4,1.3-0.7,1.8
			c-10.4,13.6-15.5,28.7-14.5,45.9c0.8,13.4,1.4,26.9,2,40.4c0.7,16.3,1.4,32.6,2.1,48.9c1.5,34.1,3.1,68.2,4.6,102.3
			c0.5,12.5,1,25,1.5,37.5c0,0.7-0.4,2.1,0.8,2c0.8,0,0.4-1.3,0.4-2c-0.9-19.9-1.8-39.7-2.7-59.6c-1.2-27.7-2.5-55.5-3.8-83.2
			c-0.5-10.6-1.1-21.2-1.4-31.8c-0.7-20.8-3.3-41.5-2.8-62.3c0.2-9.5,2.9-18.5,7.7-26.7c3.8-6.4,8.1-12.5,12.2-18.7
			c0-0.2,0-0.3,0-0.3c2-2.8,4.1-5.5,6-8.4c7.7-11.9,13.3-24.7,16.8-38.4c-0.2-0.3-0.3-0.7,0.1-0.8c-0.2,0.2-0.1,0.5,0,0.7
			c0.3-0.3,0.9-0.4,0.3-0.9c0,0-0.1,0-0.1,0c0-0.3,0.1-0.5,0.1-0.7c-0.2-0.5-0.2-1,0.1-1.3c-0.3,0.3-0.2,0.7,0,1.2
			c0.6-0.4,0.8-0.9,0.5-1.5c0,0-0.1,0-0.1,0c0.2-0.8,0.3-1.5,0.5-2.2c0.1-0.4,0.1-0.7,0.2-1c0.1-0.6,0.2-1.1,0.3-1.6
			c0.1-0.4,0.1-0.7,0.2-1c0.1-0.6,0.2-1.1,0.3-1.6c0-0.4,0.1-0.7,0.1-1c0.1-0.8,0.2-1.6,0.3-2.4C352,113.6,352,113,352.1,112.4z
			 M253.7,110.3c0-4.5,0.2-9.1-0.9-13.5c0.8-12.5,5.2-23.5,13.3-32.9c0.1-0.1,0.1-0.1,0.2-0.2c0,0-0.1,0.1-0.1,0.1
			c-8.2,9.5-12.5,20.5-13.4,33c1.1,4.4,0.9,8.9,1.2,13.5c0,1,0,1.8,0.6,2C253.7,112.2,253.7,111.4,253.7,110.3z M257.2,114.1
			c-0.7,0.1-0.9-0.5-1-1.1c0-0.3,0-0.6-0.1-0.8c0,0-0.1-0.1-0.2-0.1c0.2,0,0.4,0,0.5,0.1c0.1,0.2,0.1,0.5,0.1,0.8
			C256.6,113.5,256.7,114,257.2,114.1C257.2,114.1,257.2,114.1,257.2,114.1z M263.8,67.9c-1.7,2.4-3.2,4.9-4.5,7.6
			C260.5,72.8,262,70.3,263.8,67.9z M264.3,90.8c-0.3,0.6-1,1.3-1.8,2l0,0c0.7-0.6,1.3-1.3,1.7-1.8c0.6-1.1,1.4-2.1,2.3-3
			C265.7,88.7,264.9,89.7,264.3,90.8z M283.7,155.1c2-3.9,4.5-7.5,6-11.6c0.2-0.4,0.5-0.8,0.7-1.2c-1.4,4.5-4.2,8.6-6.4,12.8
			c-0.2,0.4-0.5,0.8-0.7,1.2c-0.1,0-0.2,0-0.3,0.1C283.2,156,283.5,155.5,283.7,155.1z M276.3,163.7c0.1-0.2,0.2-0.3,0.4-0.4
			c0.6-0.6,1.1-1.1,1.7-1.7c0,0.1,0,0.2,0,0.3c-0.5,0.5-0.9,0.9-1.4,1.4c-0.2,0.3-0.5,0.6-0.7,0.9
			C276.3,164,276.3,163.9,276.3,163.7C276.3,163.7,276.3,163.7,276.3,163.7z M276.9,170.8c1.5,1.5,0.7,3.1,1.3,4.6c0,0,0,0,0,0.1
			c-0.1-0.2-0.3-0.4-0.4-0.6c-0.3-1.3,0.2-2.8-1.1-4.1c-1.4-1.4-1.6-3.3-1.2-4.9c0.1,0.2,0.1,0.4,0.2,0.6
			C275.4,168,275.7,169.6,276.9,170.8z M277.9,175.4c0-0.1,0-0.1-0.1-0.2c0.1,0.1,0.2,0.2,0.3,0.3c-0.1,0.2-0.4,0.5-0.4,0.5
			c-0.1,0-0.1-0.1-0.2-0.1C277.8,175.8,278,175.5,277.9,175.4z M274.1,80.7c0.4-0.6,0.9-1.1,1.4-1.6c-0.5,0.5-0.9,1-1.3,1.5
			c-0.4,0.5-0.8,1-1.2,1.4C273.4,81.6,273.8,81.1,274.1,80.7z M282.6,186.5v-0.2h0.1L282.6,186.5z M281.1,182.9
			c-2.4-1.8-3.5-4.1-5.2-6.1c-1.1-1.1-1.6-2.8-2.2-4.2c0.1,0.1,0.2,0.2,0.3,0.3c0.6,1.3,1,2.7,2,3.8c1.7,2,2.8,4.3,5.2,6.1
			c2.7,2,4.5,2.1,6,0.5C285.6,185,283.8,184.9,281.1,182.9z M289.6,204.2c-0.2-1.7,1.2-2.1,2.2-2.3c-0.1,0.1-0.2,0.2-0.2,0.3
			C290.6,202.4,289.5,202.8,289.6,204.2z M290.7,245.2c-1.2,16.7-2.8,33.3-4.1,50c-2,25-4.2,50-5.7,75c-1,15.9-2.5,31.8-3.5,47.7
			c-1.1,18-2.5,36.1-3.6,54.2c-0.1,2.3-0.2,4.5-0.2,6.8c0-2.3,0-4.7,0.2-7c1.1-18,2.5-36.1,3.6-54.2c1-15.9,2.5-31.8,3.5-47.7
			c1.5-25,3.7-50,5.7-75c1.3-16.7,2.9-33.3,4.1-50c0.7-11.1,2.2-22.1,0.5-33C293,223,291.4,234.1,290.7,245.2z M289.1,181.1
			c1.1-1.2,2.2-2.4,3.1-3.7C291.3,178.7,290.2,179.9,289.1,181.1z M295.9,201.9c-0.3,0-0.7,0-1-0.1c-0.7-0.1-1.4-0.1-2.1-0.1
			c1.2-0.1,2.4-0.1,3.6,0L295.9,201.9z M293.6,175.2c1.5-2.5,3-4.9,4.6-7.2C296.6,170.2,295.1,172.7,293.6,175.2z M312.1,145.3
			c-2.3-0.3-4.4,0.2-6.1,1.7c1.7-1.5,3.8-2.1,6.2-1.8c0.9,0.1,1.3-0.1,1.6-0.5C313.5,145.1,313,145.4,312.1,145.3z M316.5,49.6
			c-0.1-0.1-0.3-0.1-0.4-0.2c0.2,0,0.4,0.1,0.6,0.1c1.6,0,3,1.1,4.6,0.9C319.5,50.8,318.1,49.6,316.5,49.6z M326,175.1L326,175.1
			c0,0,0.1,0,0.1-0.1C326.1,175.1,326.1,175.1,326,175.1z M326.4,173.8c0.1,0,0.1-0.1,0.2-0.1c0,0,0-0.1,0-0.1
			c0.2-0.1,0.3-0.2,0.4-0.3C326.9,173.5,326.7,173.7,326.4,173.8z M327.1,172.5c0,0,0-0.1,0-0.1c0.1,0,0.2,0,0.3,0c0,0,0-0.1,0-0.1
			c0.2-0.1,0.4-0.2,0.5-0.3C327.8,172.2,327.5,172.4,327.1,172.5z M328,171.1c-0.1,0-0.1,0-0.2,0C327.9,171.1,327.9,171.1,328,171.1
			C328,171.1,328,171.1,328,171.1C328,171.1,328,171.1,328,171.1L328,171.1C328,171.1,328,171.1,328,171.1z M334.5,161.2
			c-1.8,3.4-3.4,6.9-6.3,9.7c0,0,0,0,0,0c2.8-2.7,4.4-6.3,6.3-9.8c9.6-18.1,16.9-36.9,16.7-57.9c0,0,0,0,0,0
			C351.4,124.2,344.1,143.1,334.5,161.2z"/>
		<path class="st2" d="M317.9,481c0.6-1,0.5-2,0-2.9c-0.4,0.4-0.7,0.9-0.7,1.4c0-0.5,0.2-1,0.7-1.5c-0.2-3.9-0.3-7.9-0.5-11.8
			c-0.1-0.6-0.1-1.1-0.1-1.8c0,0.6,0.1,1.2,0.1,1.8c0.4-0.6,0.3-1.2-0.1-1.8c0,0,0-0.1,0-0.1c-0.1-0.7-0.1-1.4-0.2-2.1
			c-0.1-0.8-0.3-1.6-0.4-2.4c-0.7,0.7-0.3,1.6-0.3,2.4c0.3,7.9,0.8,15.7,0.5,23.6c0.1,0.1,0.3,0.1,0.5,0.2
			C318.3,484.3,317.8,482.6,317.9,481C317.9,481,317.9,481,317.9,481z"/>
		<path class="st2" d="M351.9,114.3c0.4-0.6,0.6-1.2,0.2-1.8C352,113.1,352,113.7,351.9,114.3z"/>
		<path class="st2" d="M351.3,119.2c-0.1,0.3-0.2,0.7-0.2,1C351.2,119.9,351.2,119.6,351.3,119.2z"/>
		<path class="st2" d="M316.9,485.9c-0.3,0.3-0.6,0.7,0,1c0.6,0.2,0.5-0.4,0.5-0.8C317.3,486,317.1,486,316.9,485.9z"/>
	</g>
	<g id="Layer_5">
		<path class="st3" d="M318,200c0,0,39.3-42.3,38.3-87.6c0,0-0.3-61-49.9-61.8v0c-0.2,0-0.3,0-0.5,0c-0.2,0-0.3,0-0.5,0v0
			c-49.5,0.8-49.9,61.8-49.9,61.8c-1,45.3,38.3,87.6,38.3,87.6c17.7,44.6-12.9,286.4-12.9,286.4c0,17.2,19.7,20.1,24.4,20.6v0.1
			c0,0,0.2,0,0.5,0c0.3,0,0.5,0,0.5,0V507c4.7-0.5,24.4-3.4,24.4-20.6C330.9,486.4,300.3,244.5,318,200z"/>
	</g>
	<g id="Layer_3_1_">
		<g>
			<rect x="7.5" y="264.9" class="st4" width="597" height="202.5"/>
			<path class="st5" d="M14.6,289.5c0-14.5,12-26,26.6-26c6.1,0,12,2.1,16.4,5.6c1.9,1.4,2.2,4,0.8,5.8c-1.4,1.7-4,2.1-5.8,0.6
				c-3.1-2.4-7.1-3.9-11.4-3.9c-5.2,0-9.7,1.9-13,5.3c-3.4,3.2-5.4,7.6-5.4,12.5c0,4.8,2,9.1,5.4,12.4c3.2,3.3,7.8,5.3,13,5.3
				c3.6,0,7-1.1,9.9-2.7v-9.9H40.8c-2.2,0-4.1-1.9-4.1-4.1c0-2.3,1.9-4,4.1-4H55c0.1,0,0.1,0,0.1,0c0.1,0,0.1,0,0.1,0
				c2.3,0,4.2,1.7,4.2,4v15.9c0,0.5-0.1,0.8-0.2,1.2c-0.1,0.1-0.1,0.2-0.1,0.4v0.1c-0.2,0.6-0.6,1.2-1.4,1.7
				c-4.5,3.5-10.2,5.6-16.3,5.6C26.6,315.3,14.6,303.9,14.6,289.5z"/>
			<path class="st5" d="M115.2,271.2c4.5,4.8,7.3,11.1,7.3,18.2s-2.8,13.5-7.3,18.2c-4.2,4.7-10.6,7.7-17.2,7.7
				c-6.9,0-13.2-3-17.6-7.7c-4.5-4.7-7.1-11.1-7.1-18.2s2.7-13.5,7.1-18.2c4.4-4.8,10.7-7.7,17.6-7.7
				C104.6,263.5,111,266.4,115.2,271.2z M114.3,289.4c0-4.9-1.9-9.4-4.9-12.6s-7.1-5.1-11.4-5.1c-4.6,0-8.6,1.9-11.7,5.1
				c-3,3.2-4.9,7.7-4.9,12.6s1.9,9.4,4.9,12.5c3,3.2,7.1,5.2,11.7,5.2c4.3,0,8.4-1.9,11.4-5.2C112.3,298.8,114.3,294.3,114.3,289.4z
				"/>
			<path class="st5" d="M136.3,311.4v-42.5c0-2.2,1.7-4,4-4c2.2,0,4,1.8,4,4v38.5h19.5c2.1,0,4,1.8,4,4s-1.9,4-4,4h-23.3
				c-0.1,0-0.1,0-0.1,0c-0.1,0-0.1,0-0.1,0C138,315.3,136.3,313.5,136.3,311.4z"/>
			<path class="st5" d="M176.8,311.4v-42.5c0-2.2,1.7-4,4-4h8.5c13.9,0,25.1,11.3,25.1,25.1c0,14-11.2,25.3-25.1,25.3h-8.5
				C178.6,315.3,176.8,313.5,176.8,311.4z M184.8,307.3h4.5c9.5-0.1,17.1-7.7,17.1-17.3c0-9.4-7.6-17.1-17.1-17.1h-4.5V307.3z"/>
			<path class="st5" d="M225,311.4v-42.5c0-2.2,1.7-4,4-4h0.1c0,0,0,0,0.1,0h23.3c2.1,0,4,1.7,4,4c0,2.2-1.9,4-4,4H233v13.2h16.8
				c2.2,0,4,1.9,4,4c0,2.2-1.8,4-4,4H233v13.2h19.5c2.1,0,4,1.8,4,4s-1.9,4-4,4h-23.3c-0.1,0-0.1-0.1-0.1-0.1l-0.1,0.1
				C226.7,315.3,225,313.5,225,311.4z"/>
			<path class="st5" d="M275.6,311.4c0,2.2-1.8,4-3.9,4c-2.2,0-4-1.8-4-4v-41.8c0,0,0,0,0-0.1c-0.1-1.2,0.5-2.5,1.6-3.3
				c1.8-1.2,4.2-0.9,5.5,0.9l23.3,32.2v-29.7c0-2.1,1.7-3.9,3.9-3.9c2.2,0,4,1.8,4,3.9v41.8c0,2.2-1.8,4-4,4c-1.2,0-2.2-0.6-3-1.4
				c-0.1-0.1-0.3-0.3-0.4-0.4l-23-32V311.4z"/>
			<path class="st5" d="M343.2,302.8c1.3-1.6,3.7-1.8,5.3-0.5c3.2,2.6,8.6,5.6,13.8,5.5c3.6,0,6.8-1.1,9-2.7s3.1-3.4,3.1-5.2
				c0-0.9-0.2-1.6-0.6-2.3c-0.4-0.7-1.1-1.4-2.2-2.2c-2.1-1.4-5.6-2.6-9.9-3.4h-0.1c-3.4-0.6-6.6-1.5-9.3-2.8
				c-2.7-1.3-5.1-3.1-6.7-5.6c-1.1-1.7-1.7-3.7-1.7-5.9c0-4.3,2.4-8.1,5.8-10.5s7.8-3.8,12.5-3.8c6.9,0,12,3.4,15.7,5.8
				c1.7,1.2,2.2,3.5,1,5.1c-1.1,1.7-3.4,2.2-5.1,1.1c-3.7-2.4-7.2-4.6-11.6-4.6c-3.2,0-6.1,1-8.1,2.4c-1.9,1.4-2.7,3-2.7,4.5
				c0,0.9,0.1,1.4,0.5,2s1,1.2,1.9,1.9c1.9,1.3,5.1,2.4,9,3.2h0.1c3.7,0.7,7.1,1.7,9.9,3c3,1.4,5.5,3.3,7.2,6
				c1.1,1.7,1.7,3.9,1.7,6.1c0,4.6-2.6,8.6-6.2,11.2c-3.5,2.6-8.2,4.1-13.3,4.1c-7.8-0.1-14.3-4-18.4-7.2
				C342.2,306.8,342,304.4,343.2,302.8z"/>
			<path class="st5" d="M409.7,295.7h-8.9v15.6c0,2.2-1.8,4-4,4s-4-1.8-4-4v-42.5c0-2.2,1.8-4,4-4h0.1h12.8
				c8.6,0,15.5,6.9,15.5,15.5C425.2,288.8,418.3,295.7,409.7,295.7z M400.8,287.7h8.9c4.2,0,7.4-3.3,7.5-7.3
				c-0.1-4.2-3.3-7.5-7.5-7.5h-8.9V287.7z"/>
			<path class="st5" d="M474.6,271.2c4.5,4.8,7.3,11.1,7.3,18.2s-2.8,13.5-7.3,18.2c-4.2,4.7-10.6,7.7-17.2,7.7
				c-6.9,0-13.2-3-17.6-7.7c-4.5-4.7-7.1-11.1-7.1-18.2s2.7-13.5,7.1-18.2c4.4-4.8,10.7-7.7,17.6-7.7
				C464,263.5,470.3,266.4,474.6,271.2z M473.6,289.4c0-4.9-1.9-9.4-4.9-12.6s-7.1-5.1-11.4-5.1c-4.6,0-8.6,1.9-11.7,5.1
				c-3,3.2-4.9,7.7-4.9,12.6s1.9,9.4,4.9,12.5c3,3.2,7.1,5.2,11.7,5.2c4.3,0,8.4-1.9,11.4-5.2C471.7,298.8,473.6,294.3,473.6,289.4z
				"/>
			<path class="st5" d="M535,271.2c4.5,4.8,7.3,11.1,7.3,18.2s-2.8,13.5-7.3,18.2c-4.2,4.7-10.6,7.7-17.2,7.7
				c-6.9,0-13.2-3-17.6-7.7c-4.5-4.7-7.1-11.1-7.1-18.2s2.7-13.5,7.1-18.2c4.4-4.8,10.7-7.7,17.6-7.7
				C524.5,263.5,530.8,266.4,535,271.2z M534.1,289.4c0-4.9-1.9-9.4-4.9-12.6s-7.1-5.1-11.4-5.1c-4.6,0-8.6,1.9-11.7,5.1
				c-3,3.2-4.9,7.7-4.9,12.6s1.9,9.4,4.9,12.5c3,3.2,7.1,5.2,11.7,5.2c4.3,0,8.4-1.9,11.4-5.2C532.2,298.8,534.1,294.3,534.1,289.4z
				"/>
			<path class="st5" d="M562.5,311.4c0,2.2-1.8,4-3.9,4c-2.2,0-4-1.8-4-4v-41.8c0,0,0,0,0-0.1c-0.1-1.2,0.5-2.5,1.6-3.3
				c1.8-1.2,4.2-0.9,5.5,0.9l23.3,32.2v-29.7c0-2.1,1.7-3.9,3.9-3.9s4,1.8,4,3.9v41.8c0,2.2-1.8,4-4,4c-1.2,0-2.2-0.6-3-1.4
				c-0.1-0.1-0.3-0.3-0.4-0.4l-23-32L562.5,311.4L562.5,311.4z"/>
		</g>
		<g>
			<rect x="7.5" y="338.3" class="st4" width="597" height="202.5"/>
			<path class="st6" d="M30.3,341.3c0-1.7,1.3-3.1,3.1-3.1c1.7,0,3.1,1.3,3.1,3.1v33c0,1.7-1.5,3.1-3.1,3.1c-1.7,0-3.1-1.3-3.1-3.1
				V341.3z"/>
			<path class="st6" d="M45.2,357.3c0.1-11.1,9.4-20.1,20.6-20.2c4.9,0,9.4,1.6,12.9,4.4c1.3,1.1,1.6,3.1,0.6,4.5
				c-1.1,1.4-3.2,1.6-4.5,0.6c-2.5-2-5.5-3.1-9-3.1c-3.9,0-7.4,1.6-10.1,4c-2.5,2.6-4.1,5.9-4.1,9.7s1.6,7.3,4.1,9.7
				c2.6,2.5,6.2,4,10.1,4c3.5,0,6.5-1.1,9-3.1c1.3-1,3.4-0.7,4.5,0.6c1,1.4,0.8,3.4-0.6,4.5c-3.5,2.7-8,4.4-12.9,4.4
				C54.6,377.5,45.3,368.4,45.2,357.3z"/>
			<path class="st6" d="M90.1,374.4v-33c0-1.7,1.3-3.1,3.1-3.1h0.1c0,0,0,0,0.1,0h18.1c1.6,0,3.1,1.3,3.1,3.1s-1.5,3.1-3.1,3.1H96.3
				v10.2h13c1.7,0,3.1,1.5,3.1,3.1c0,1.7-1.4,3.1-3.1,3.1h-13v10.3h15.2c1.6,0,3.1,1.4,3.1,3.1c0,1.7-1.5,3.1-3.1,3.1H93.4
				c-0.1,0-0.1-0.1-0.1-0.1l-0.1,0.1C91.5,377.5,90.1,376.1,90.1,374.4z"/>
			<path class="st6" d="M138.4,357.3c0.1-11.1,9.4-20.1,20.6-20.2c4.9,0,9.4,1.6,12.9,4.4c1.3,1.1,1.6,3.1,0.6,4.5
				c-1.1,1.4-3.2,1.6-4.5,0.6c-2.5-2-5.5-3.1-9-3.1c-3.9,0-7.4,1.6-10.1,4c-2.5,2.6-4.1,5.9-4.1,9.7s1.6,7.3,4.1,9.7
				c2.6,2.5,6.2,4,10.1,4c3.5,0,6.5-1.1,9-3.1c1.3-1,3.4-0.7,4.5,0.6c1,1.4,0.8,3.4-0.6,4.5c-3.5,2.7-8,4.4-12.9,4.4
				C147.8,377.5,138.5,368.4,138.4,357.3z"/>
			<path class="st6" d="M209.2,372.8c0.6,1.6-0.3,3.4-2,3.9c-0.2,0.1-0.7,0.2-1.2,0.2c0,0,0,0-0.1,0c-0.6,0-1.4-0.1-2.2-0.6
				c-0.7-0.4-1.3-1.2-1.8-2c-0.8-1.6-1.2-3.6-1.2-6.7c-0.1-1.1-0.3-1.8-0.7-2.4c-0.3-0.6-1-1.2-1.7-1.6c-1.2-0.8-2.6-1.2-3.1-1.3
				h-6.6v12.2c0,1.7-1.4,3.1-3.1,3.1c-1.7,0-3.1-1.4-3.1-3.1v-33c0-1.7,1.3-3.1,3.1-3.1c0,0,0,0,0.1,0h10c6.7,0,12,5.4,12,12
				c0,3.7-1.7,6.9-4.4,9.2c0.7,0.6,1.4,1.2,2,2.1c1.1,1.6,1.8,3.7,1.8,6c-0.1,1.7,0.1,2.7,0.2,3.3
				C208.2,371.2,208.9,371.9,209.2,372.8z M201.4,350.3c0-3.2-2.6-5.8-5.8-5.8h-6.9V356h6.9C198.8,356,201.4,353.4,201.4,350.3z"/>
			<path class="st6" d="M218.3,374.4v-33c0-1.7,1.3-3.1,3.1-3.1h0.1c0,0,0,0,0.1,0h18.1c1.6,0,3.1,1.3,3.1,3.1s-1.5,3.1-3.1,3.1
				h-15.2v10.2h13c1.7,0,3.1,1.5,3.1,3.1c0,1.7-1.4,3.1-3.1,3.1h-13v10.3h15.2c1.6,0,3.1,1.4,3.1,3.1c0,1.7-1.5,3.1-3.1,3.1h-18.1
				c-0.1,0-0.1-0.1-0.1-0.1l-0.1,0.1C219.7,377.5,218.3,376.1,218.3,374.4z"/>
			<path class="st6" d="M271.5,368.2h-13.6l-2.7,7.3c-0.5,1.2-1.7,2-2.9,2c-0.4,0-0.7-0.1-1.1-0.2c-1.6-0.6-2.4-2.4-1.8-4l12.4-33
				c0.5-1.2,1.7-2,3-2c1.3-0.1,2.5,0.7,3,2l12.4,33c0.6,1.6-0.2,3.4-1.8,4c-0.3,0.1-0.7,0.2-1.1,0.2c-1.2,0-2.4-0.7-2.9-2
				L271.5,368.2z M269.2,362.1l-4.5-12l-4.5,12H269.2z"/>
			<path class="st6" d="M321.4,341.3v33c0,1.7-1.5,3.1-3.1,3.1c-1.7,0-3.1-1.4-3.1-3.1v-23.6l-8.1,11.2c-0.6,0.8-1.5,1.3-2.5,1.3
				h-0.1h-0.1c-1,0-2-0.4-2.6-1.3l-8-11.2v23.6c0,1.7-1.4,3.1-3.1,3.1s-3.1-1.4-3.1-3.1v-33c0-1.7,1.4-3.1,3.1-3.1
				c0.1,0,0.1,0,0.2,0c0.9,0,1.9,0.4,2.5,1.3l11.1,15.5l11.1-15.5c0.6-0.8,1.5-1.3,2.5-1.3c0,0,0,0,0.1,0
				C320,338.3,321.4,339.7,321.4,341.3z"/>
			<path class="st6" d="M375.7,344.5h-8.9v29.9c0,1.7-1.3,3.1-3.1,3.1c-1.7,0-3.1-1.3-3.1-3.1v-29.9h-8.8c-1.7,0-3.1-1.5-3.1-3.1
				c0-1.7,1.3-3.1,3.1-3.1h23.9c1.7,0,3.1,1.3,3.1,3.1C378.8,343,377.4,344.5,375.7,344.5z"/>
			<path class="st6" d="M402.7,368.2h-13.6l-2.7,7.3c-0.5,1.2-1.7,2-2.9,2c-0.4,0-0.7-0.1-1.1-0.2c-1.6-0.6-2.4-2.4-1.8-4l12.4-33
				c0.5-1.2,1.7-2,3-2c1.3-0.1,2.5,0.7,3,2l12.4,33c0.6,1.6-0.2,3.4-1.8,4c-0.3,0.1-0.7,0.2-1.1,0.2c-1.2,0-2.4-0.7-2.9-2
				L402.7,368.2z M400.4,362.1l-4.5-12l-4.5,12H400.4z"/>
			<path class="st6" d="M416.7,367.7c1-1.2,2.9-1.4,4.1-0.4c2.5,2,6.7,4.4,10.7,4.3c2.8,0,5.3-0.8,7-2.1c1.7-1.2,2.4-2.6,2.4-4
				c0-0.7-0.2-1.2-0.5-1.8c-0.3-0.6-0.8-1.1-1.7-1.7c-1.6-1.1-4.4-2-7.7-2.6h-0.1c-2.6-0.5-5.1-1.2-7.2-2.2s-4-2.4-5.2-4.4
				c-0.8-1.3-1.3-2.9-1.3-4.6c0-3.4,1.9-6.3,4.5-8.2c2.6-1.9,6-3,9.7-3c5.4,0,9.4,2.6,12.2,4.5c1.3,0.9,1.7,2.7,0.8,4
				c-0.8,1.3-2.6,1.7-4,0.8c-2.9-1.9-5.6-3.6-9-3.6c-2.5,0-4.8,0.8-6.3,1.9s-2.1,2.4-2.1,3.5c0,0.7,0.1,1.1,0.4,1.6
				c0.3,0.4,0.8,1,1.5,1.5c1.5,1,4,1.9,7,2.5h0.1c2.9,0.6,5.5,1.3,7.7,2.4c2.3,1.1,4.3,2.6,5.6,4.6c0.8,1.3,1.3,3,1.3,4.8
				c0,3.6-2,6.7-4.8,8.7c-2.7,2-6.4,3.2-10.4,3.2c-6-0.1-11.1-3.1-14.3-5.6C415.9,370.8,415.8,368.9,416.7,367.7z"/>
			<path class="st6" d="M478.4,344.5h-8.9v29.9c0,1.7-1.3,3.1-3.1,3.1c-1.7,0-3.1-1.3-3.1-3.1v-29.9h-8.8c-1.7,0-3.1-1.5-3.1-3.1
				c0-1.7,1.3-3.1,3.1-3.1h23.9c1.7,0,3.1,1.3,3.1,3.1C481.5,343,480.1,344.5,478.4,344.5z"/>
			<path class="st6" d="M491.1,341.3c0-1.7,1.3-3.1,3.1-3.1c1.7,0,3.1,1.3,3.1,3.1v33c0,1.7-1.5,3.1-3.1,3.1c-1.7,0-3.1-1.3-3.1-3.1
				V341.3z"/>
			<path class="st6" d="M514,374.4c0,1.7-1.4,3.1-3,3.1c-1.7,0-3.1-1.4-3.1-3.1v-32.5c0,0,0,0,0-0.1c-0.1-1,0.4-2,1.2-2.6
				c1.4-1,3.3-0.7,4.3,0.7l18.1,25v-23.1c0-1.6,1.3-3,3-3s3.1,1.4,3.1,3v32.5c0,1.7-1.4,3.1-3.1,3.1c-0.9,0-1.7-0.4-2.3-1.1
				c-0.1-0.1-0.2-0.2-0.3-0.3L514,351.1V374.4z"/>
			<path class="st6" d="M546.5,357.4c0-11.3,9.3-20.2,20.7-20.2c4.8,0,9.3,1.6,12.8,4.4c1.5,1.1,1.7,3.1,0.6,4.5
				c-1.1,1.3-3.1,1.6-4.5,0.5c-2.4-1.8-5.5-3-8.8-3c-4,0-7.6,1.5-10.1,4.1c-2.6,2.5-4.2,5.9-4.2,9.7c0,3.7,1.6,7.1,4.2,9.6
				c2.5,2.6,6,4.1,10.1,4.1c2.8,0,5.4-0.8,7.7-2.1v-7.7h-8c-1.7,0-3.2-1.5-3.2-3.2c0-1.8,1.5-3.1,3.2-3.1h11c0.1,0,0.1,0,0.1,0
				c0.1,0,0.1,0,0.1,0c1.8,0,3.2,1.3,3.2,3.1v12.4c0,0.4-0.1,0.6-0.2,1c-0.1,0.1-0.1,0.2-0.1,0.3v0.1c-0.2,0.5-0.5,1-1.1,1.3
				c-3.5,2.7-8,4.4-12.7,4.4C555.8,377.5,546.5,368.6,546.5,357.4z"/>
		</g>
	</g>
	<g>
	</g>
	<g>
	</g>
	<g>
	</g>
	<g>
	</g>
	<g>
	</g>
	<g>
	</g>
</g>
</svg>
